<svg xmlns="http://www.w3.org/2000/svg" viewBox="0 0 181.34 181.34">
  <g data-name="Capa 2">
    <path fill="#3abff7" d="M90.67 0A90.66 90.66 0 0 0 0 90.67a90.67 90.67 0 0 0 90.67 90.67 90.68 90.68 0 0 0 90.67-90.67A90.67 90.67 0 0 0 90.67 0ZM80.05 41.92h31.8l-4.36 9.34-9.09 19.5H66.63Zm44.34 79.66a53.69 53.69 0 0 1-44.54 27.78c-.85 0-1.69.06-2.54.06a53.69 53.69 0 0 1-53.65-50.9V95.7H52.5a24.94 24.94 0 0 0 16.44 23.46 49.16 49.16 0 0 0 8.51 1.49A24.94 24.94 0 0 0 99 108.26c.78-1.26 31-66.34 31-66.34h31.73s-36.19 77.57-37.34 79.66Z" data-name="Capa 1"/>
  </g>
</svg>